# xmcd CD database file
#
# Track frame offsets:
#	150
#	15455
#	23089
#	45291
#	68693
#
# Disc length: 1169 seconds
#
# Revision: 0
# Processed by: cddbd v1.5.1PL0 Copyright (c) Steve Scherf et al.
# Submitted via: CDex 1.51
#
DISCID=2c048f05
DTITLE=BUGGER - Démo
DYEAR=1900
DGENRE=Jazz
TTITLE0=Bloody Jazz Market
TTITLE1=Night In Tunisia
TTITLE2=Wave
TTITLE3=Summertime
TTITLE4=So What ?!?
EXTD=
EXTT0=
EXTT1=
EXTT2=
EXTT3=
EXTT4=
PLAYORDER=
